<?xml version="1.0" standalone="no"?>
<svg xmlns:xlink="http://www.w3.org/1999/xlink" id="wave" style="transform:rotate(180deg); transition: 0.3s" viewBox="0 0 1440 490" version="1.1" xmlns="http://www.w3.org/2000/svg"><defs><linearGradient id="sw-gradient-0" x1="0" x2="0" y1="1" y2="0"><stop stop-color="rgba(243, 106, 62, 1)" offset="0%"/><stop stop-color="rgba(255, 179, 11, 1)" offset="100%"/></linearGradient></defs><path style="transform:translate(0, 0px); opacity:1" fill="url(#sw-gradient-0)" d="M0,98L26.7,122.5C53.3,147,107,196,160,187.8C213.3,180,267,114,320,98C373.3,82,427,114,480,130.7C533.3,147,587,147,640,187.8C693.3,229,747,310,800,285.8C853.3,261,907,131,960,106.2C1013.3,82,1067,163,1120,196C1173.3,229,1227,212,1280,171.5C1333.3,131,1387,65,1440,49C1493.3,33,1547,65,1600,89.8C1653.3,114,1707,131,1760,122.5C1813.3,114,1867,82,1920,81.7C1973.3,82,2027,114,2080,155.2C2133.3,196,2187,245,2240,245C2293.3,245,2347,196,2400,196C2453.3,196,2507,245,2560,236.8C2613.3,229,2667,163,2720,179.7C2773.3,196,2827,294,2880,302.2C2933.3,310,2987,229,3040,163.3C3093.3,98,3147,49,3200,81.7C3253.3,114,3307,229,3360,228.7C3413.3,229,3467,114,3520,122.5C3573.3,131,3627,261,3680,261.3C3733.3,261,3787,131,3813,65.3L3840,0L3840,490L3813.3,490C3786.7,490,3733,490,3680,490C3626.7,490,3573,490,3520,490C3466.7,490,3413,490,3360,490C3306.7,490,3253,490,3200,490C3146.7,490,3093,490,3040,490C2986.7,490,2933,490,2880,490C2826.7,490,2773,490,2720,490C2666.7,490,2613,490,2560,490C2506.7,490,2453,490,2400,490C2346.7,490,2293,490,2240,490C2186.7,490,2133,490,2080,490C2026.7,490,1973,490,1920,490C1866.7,490,1813,490,1760,490C1706.7,490,1653,490,1600,490C1546.7,490,1493,490,1440,490C1386.7,490,1333,490,1280,490C1226.7,490,1173,490,1120,490C1066.7,490,1013,490,960,490C906.7,490,853,490,800,490C746.7,490,693,490,640,490C586.7,490,533,490,480,490C426.7,490,373,490,320,490C266.7,490,213,490,160,490C106.7,490,53,490,27,490L0,490Z"/></svg>